<?xml version="1.0" encoding="utf-8"?>
<!-- Generator: Adobe Illustrator 16.0.0, SVG Export Plug-In . SVG Version: 6.00 Build 0)  -->
<!DOCTYPE svg PUBLIC "-//W3C//DTD SVG 1.1//EN" "http://www.w3.org/Graphics/SVG/1.1/DTD/svg11.dtd">
<svg version="1.1" id="Layer_1" xmlns="http://www.w3.org/2000/svg" xmlns:xlink="http://www.w3.org/1999/xlink" x="0px" y="0px"
	 width="400px" height="250px" viewBox="0 0 400 250" enable-background="new 0 0 400 250" xml:space="preserve">
<g>
	<radialGradient id="SVGID_1_" cx="308.4141" cy="179.1367" r="19.1811" gradientUnits="userSpaceOnUse">
		<stop  offset="0" style="stop-color:#FFE287"/>
		<stop  offset="1" style="stop-color:#FBB03B"/>
	</radialGradient>
	<path fill="url(#SVGID_1_)" d="M322.651,162.659c-5.585-3.753-13.214-2.493-18.782,0.599c-0.239,0.134-0.463,0.285-0.691,0.433
		c-0.199,0.023-0.4,0.039-0.599,0.069c-7.384,1.133-13.626,6.605-13.727,14.377c-0.095,7.242,5.57,11.321,11.885,12.402
		c-0.806,3.693,2.163,8.375,7.032,7.206c2.88-0.691,5.633-1.734,8.31-2.959c2.846-0.909,5.551-2.415,7.614-3.926
		c3.354-2.455,3.138-6.545,1.1-8.912C329.607,176.32,329.018,166.938,322.651,162.659z"/>
	<radialGradient id="SVGID_2_" cx="172.5" cy="77.5" r="18.5" gradientUnits="userSpaceOnUse">
		<stop  offset="0" style="stop-color:#FFE287"/>
		<stop  offset="1" style="stop-color:#FBB03B"/>
	</radialGradient>
	<path fill="url(#SVGID_2_)" stroke="#3A3A3A" stroke-width="6" stroke-miterlimit="10" d="M191,86.593
		c0,5.195-4.212,9.407-9.407,9.407h-18.186c-5.195,0-9.407-4.212-9.407-9.407V68.407c0-5.195,4.212-9.407,9.407-9.407h18.186
		c5.195,0,9.407,4.212,9.407,9.407V86.593z"/>
	<path stroke="#000000" stroke-miterlimit="10" d="M62.74,98.429c-6.466,0-10.173-2.586-12.932-8.19l-7.932-16.036
		c-1.465-2.931-2.328-5.69-2.328-9.052c0-3.793,0.69-6.121,2.414-9.57l7.931-15.949c2.932-5.949,6.639-8.276,13.277-8.276h14.656
		c1.897,0,4.311,1.035,4.311,4.311c0,3.104-2.328,4.311-4.311,4.311H63.43c-3.707,0-4.311,0.345-5.948,3.621L49.98,58.599
		c-1.121,2.328-1.811,3.879-1.811,6.552c0,2.414,0.776,3.88,1.811,5.949l7.328,14.915c1.724,3.535,2.586,3.793,6.466,3.793h14.053
		c1.897,0,4.311,1.035,4.311,4.31c0,3.104-2.328,4.311-4.311,4.311H62.74z"/>
	<path stroke="#000000" stroke-miterlimit="10" d="M102.658,58.081c0-3.018,0.345-6.121,4.138-6.121
		c3.276,0,4.138,2.759,4.138,5.518v3.362l6.466-5.345c2.328-1.896,4.742-3.534,7.328-3.534h6.638c3.19,0,5.862,1.034,8.104,3.276
		c2.759,2.759,3.707,5.603,3.707,9.396c0,2.845-0.517,5.776-4.052,5.776c-3.017,0-4.225-2.414-4.225-5.086
		c0-1.379,0-2.414-0.862-3.621c-1.034-1.465-3.017-1.465-5-1.465h-2.414c-1.551,0-2.672,0.775-4.138,1.983l-11.553,9.57v20.949
		c0,2.845-0.604,5.69-4.138,5.69c-3.535,0-4.138-2.845-4.138-5.69V58.081z"/>
	<path stroke="#000000" stroke-miterlimit="10" d="M220.257,60.237c-1.725,0-4.655-0.345-4.655,2.328
		c0,1.379,1.034,1.896,2.241,2.414l20.691,9.397c5.344,2.414,8.104,5.776,8.104,11.725c0,8.363-5.689,12.329-13.622,12.329h-12.759
		c-4.311,0-7.242-0.172-10.346-2.586c-1.552-1.207-3.794-2.759-3.794-4.828c0-2.328,1.983-4.139,4.312-4.139
		c1.293,0,2.241,0.431,3.189,1.466c1.466,1.638,4.052,1.81,6.639,1.81h11.207c2.931,0,6.897,0.259,6.897-4.569
		c0-1.983-2.413-3.276-4.311-4.139l-19.484-8.88c-4.569-2.069-7.241-4.742-7.241-10.087c0-6.552,5.172-10.518,11.38-10.518h14.138
		c4.569,0,6.466,0.259,9.571,2.845c1.552,1.292,3.275,2.328,3.275,4.655s-1.982,4.138-4.225,4.138c-1.552,0-2.499-0.603-3.534-1.724
		c-1.381-1.465-2.845-1.638-5.088-1.638H220.257z"/>
	<path stroke="#000000" stroke-miterlimit="10" d="M282.329,60.237c-1.724,0-4.654-0.345-4.654,2.328
		c0,1.379,1.035,1.896,2.241,2.414l20.691,9.397c5.346,2.414,8.104,5.776,8.104,11.725c0,8.363-5.689,12.329-13.622,12.329h-12.76
		c-4.311,0-7.24-0.172-10.344-2.586c-1.554-1.207-3.794-2.759-3.794-4.828c0-2.328,1.982-4.139,4.311-4.139
		c1.293,0,2.241,0.431,3.19,1.466c1.464,1.638,4.051,1.81,6.637,1.81h11.208c2.933,0,6.897,0.259,6.897-4.569
		c0-1.983-2.413-3.276-4.311-4.139l-19.484-8.88c-4.568-2.069-7.24-4.742-7.24-10.087c0-6.552,5.173-10.518,11.379-10.518h14.14
		c4.569,0,6.464,0.259,9.569,2.845c1.552,1.292,3.275,2.328,3.275,4.655s-1.982,4.138-4.226,4.138c-1.551,0-2.498-0.603-3.533-1.724
		c-1.379-1.465-2.845-1.638-5.086-1.638H282.329z"/>
	<path stroke="#000000" stroke-miterlimit="10" d="M101.623,134.815h38.278c2.242,0,4.311,1.207,4.311,4.31
		c0,3.104-2.069,4.311-4.311,4.311h-29.657v13.276h21.208c2.242,0,4.311,1.208,4.311,4.311c0,3.105-2.069,4.312-4.311,4.312h-21.208
		v32.243c0,2.759-1.207,4.311-4.31,4.311c-3.104,0-4.311-1.552-4.311-4.311V134.815z"/>
	<path stroke="#000000" stroke-miterlimit="10" d="M189.302,193.612h6.208c2.759,0,5.689,0.604,5.689,4.138
		c0,3.621-3.275,4.138-5.689,4.138h-21.036c-2.414,0-5.69-0.517-5.69-4.138c0-3.534,2.931-4.138,5.69-4.138h6.552v-46.986h-6.552
		c-2.414,0-5.69-0.519-5.69-4.138c0-3.535,2.931-4.139,5.69-4.139h8.708c4.742,0,6.121,0.862,6.121,5.775V193.612z"/>
	<path stroke="#000000" stroke-miterlimit="10" d="M251.377,193.612h6.208c2.757,0,5.689,0.604,5.689,4.138
		c0,3.621-3.275,4.138-5.689,4.138h-21.037c-2.414,0-5.689-0.517-5.689-4.138c0-3.534,2.932-4.138,5.689-4.138h6.554v-29.916h-6.554
		c-2.414,0-5.689-0.519-5.689-4.138c0-3.536,2.932-4.14,5.689-4.14h8.709c4.739,0,6.12,0.862,6.12,5.776V193.612z M238.876,138.694
		c0-2.931,1.639-3.879,3.88-3.879h4.741c2.241,0,3.88,0.948,3.88,3.879v3.966c0,2.932-1.639,3.879-3.88,3.879h-4.741
		c-2.241,0-3.88-0.947-3.88-3.879V138.694z"/>
	<path stroke="#000000" stroke-miterlimit="10" d="M329.4,183.955c0,5.95-0.432,8.19-5.259,11.985l-5.002,3.965
		c-1.725,1.378-4.396,3.707-6.637,3.707h-5.604c-3.707,0-5.431-2.414-8.104-4.913l-1.638-1.554v16.64
		c0,2.845-0.604,5.691-4.138,5.691c-3.536,0-4.138-2.847-4.138-5.691v-52.244c0-2.932,0.344-6.122,4.138-6.122
		c3.361,0,4.138,2.674,4.138,5.434v1.032l1.638-1.464c2.155-1.897,5.431-5.002,7.759-5.002h5.691c1.982,0,4.654,2.069,6.896,3.794
		l5.002,3.88c4.827,3.792,5.259,6.12,5.259,11.982V183.955z M321.124,173.955c0-1.552-0.431-2.499-1.724-3.621l-6.208-5.171
		c-0.777-0.691-1.725-1.467-2.845-1.467h-2.156c-1.207,0-2.674,1.552-3.536,2.414l-5.17,4.915c-1.725,1.637-2.329,2.586-2.329,4.396
		v8.104c0,1.208,0.344,2.759,1.206,3.536l6.293,5.947c1.208,1.208,2.502,2.328,3.536,2.328h2.156c1.12,0,2.067-0.776,2.845-1.466
		l6.208-5.173c1.293-1.12,1.724-2.068,1.724-3.619V173.955z"/>
</g>
</svg>
